<?xml version="1.0" encoding="iso-8859-1"?>
<!-- Generator: Adobe Illustrator 19.0.0, SVG Export Plug-In . SVG Version: 6.00 Build 0)  -->
<svg version="1.1" id="Capa_1" xmlns="http://www.w3.org/2000/svg" xmlns:xlink="http://www.w3.org/1999/xlink" x="0px" y="0px"
	 viewBox="0 0 512 512" style="enable-background:new 0 0 512 512;" xml:space="preserve">
<path style="fill:#AED45B;" d="M256,164c-97.047,0-176,80.299-176,179c0,24.076,4.729,45.683,14.056,64.219
	c8.824,17.537,21.79,32.419,38.539,44.233C162.781,472.745,205.454,484,256,484s93.219-11.255,123.405-32.547
	c16.749-11.814,29.715-26.696,38.539-44.233C427.271,388.683,432,367.076,432,343C432,244.299,353.047,164,256,164z"/>
<path style="fill:#9AC932;" d="M168.595,460.786c-16.749-11.814-29.715-26.696-38.539-44.233
	C120.729,398.016,116,376.409,116,352.333c0-98.701,78.953-179,176-179c8.566,0,16.986,0.638,25.228,1.847
	C298.15,167.957,277.522,164,256,164c-97.047,0-176,80.299-176,179c0,24.076,4.729,45.683,14.056,64.219
	c8.824,17.537,21.79,32.419,38.539,44.233c19.661,13.868,44.622,23.474,73.602,28.49
	C192.167,474.916,179.554,468.516,168.595,460.786z"/>
<path style="fill:#AED45B;" d="M112,188c0-14.926-5.777-30.594-15.851-42.987C85.135,131.462,70.876,124,56,124
	s-29.135,7.462-40.149,21.013C5.777,157.406,0,173.074,0,188c0,30.878,25.122,56,56,56S112,218.878,112,188z"/>
<path style="fill:#9AC932;" d="M24,193.333c0-14.926,5.777-30.594,15.851-42.987c10.394-12.788,23.679-20.146,37.644-20.934
	C70.702,125.862,63.428,124,56,124c-14.876,0-29.135,7.462-40.149,21.013C5.777,157.406,0,173.074,0,188c0,30.878,25.122,56,56,56
	c0.057,0,0.113-0.004,0.17-0.004C37.177,235.026,24,215.693,24,193.333z"/>
<path style="fill:#AED45B;" d="M176,148c30.878,0,56-25.122,56-56c0-14.926-5.777-30.594-15.851-42.987
	C205.135,35.462,190.876,28,176,28s-29.135,7.462-40.149,21.013C125.777,61.406,120,77.074,120,92C120,122.878,145.122,148,176,148z
	"/>
<path style="fill:#9AC932;" d="M142.614,102c0-14.926,5.777-30.594,15.851-42.987C169.479,45.462,183.738,38,198.614,38
	c2.309,0,4.6,0.201,6.869,0.555C196.562,31.685,186.435,28,176,28c-14.876,0-29.135,7.462-40.149,21.013
	C125.777,61.406,120,77.074,120,92c0,27.206,19.506,49.933,45.265,54.956C151.53,136.741,142.614,120.393,142.614,102z"/>
<path style="fill:#AED45B;" d="M496.149,145.013C485.135,131.462,470.876,124,456,124s-29.135,7.462-40.149,21.013
	C405.777,157.406,400,173.074,400,188c0,30.878,25.122,56,56,56s56-25.122,56-56C512,173.074,506.223,157.406,496.149,145.013z"/>
<path style="fill:#9AC932;" d="M424.667,198.108c0-14.926,5.777-30.594,15.851-42.987c11.014-13.55,25.273-21.013,40.149-21.013
	c1.533,0,3.057,0.099,4.574,0.256C476.379,127.614,466.34,124,456,124c-14.876,0-29.135,7.462-40.149,21.013
	C405.777,157.406,400,173.074,400,188c0,28.085,20.784,51.401,47.777,55.391C433.785,233.2,424.667,216.703,424.667,198.108z"/>
<path style="fill:#AED45B;" d="M336,148c30.878,0,56-25.122,56-56c0-14.926-5.777-30.594-15.851-42.987
	C365.135,35.462,350.876,28,336,28s-29.135,7.462-40.149,21.013C285.777,61.406,280,77.074,280,92C280,122.878,305.122,148,336,148z
	"/>
<path style="fill:#9AC932;" d="M301.333,103.333c0-14.926,5.777-30.594,15.851-42.987c11.014-13.55,25.273-21.013,40.149-21.013
	c3.619,0,7.2,0.45,10.708,1.313C358.523,32.435,347.447,28,336,28c-14.876,0-29.135,7.462-40.149,21.013
	C285.777,61.406,280,77.074,280,92c0,25.713,17.426,47.419,41.083,53.967C309.012,135.687,301.333,120.394,301.333,103.333z"/>
<path style="fill:#FFFFFF;" d="M328,292h-40v-40c0-4.418-3.582-8-8-8h-48c-4.418,0-8,3.582-8,8v40h-40c-4.418,0-8,3.582-8,8v48
	c0,4.418,3.582,8,8,8h40v40c0,4.418,3.582,8,8,8h48c4.418,0,8-3.582,8-8v-40h40c4.418,0,8-3.582,8-8v-48
	C336,295.582,332.418,292,328,292z"/>
<g>
</g>
<g>
</g>
<g>
</g>
<g>
</g>
<g>
</g>
<g>
</g>
<g>
</g>
<g>
</g>
<g>
</g>
<g>
</g>
<g>
</g>
<g>
</g>
<g>
</g>
<g>
</g>
<g>
</g>
</svg>
